%TF.GenerationSoftware,KiCad,Pcbnew,(5.99.0-12157-g5a28a06597)*%
%TF.CreationDate,2021-09-01T12:46:34+08:00*%
%TF.ProjectId,CW-PHONE-BAND-PASS,43572d50-484f-44e4-952d-42414e442d50,rev?*%
%TF.SameCoordinates,PX5a995c0PY6422c40*%
%TF.FileFunction,Legend,Top*%
%TF.FilePolarity,Positive*%
%FSLAX46Y46*%
G04 Gerber Fmt 4.6, Leading zero omitted, Abs format (unit mm)*
G04 Created by KiCad (PCBNEW (5.99.0-12157-g5a28a06597)) date 2021-09-01 12:46:34*
%MOMM*%
%LPD*%
G01*
G04 APERTURE LIST*
%ADD10C,0.150000*%
%ADD11C,0.120000*%
%ADD12C,2.700000*%
%ADD13C,2.500000*%
%ADD14O,2.200000X2.000000*%
%ADD15C,2.200000*%
%ADD16C,1.000000*%
G04 APERTURE END LIST*
D10*
X32338095Y7547620D02*
X32909523Y7547620D01*
X32623809Y6547620D02*
X32623809Y7547620D01*
X33242857Y6547620D02*
X33242857Y7547620D01*
X33623809Y7547620D01*
X33719047Y7500000D01*
X33766666Y7452381D01*
X33814285Y7357143D01*
X33814285Y7214286D01*
X33766666Y7119048D01*
X33719047Y7071429D01*
X33623809Y7023810D01*
X33242857Y7023810D01*
X34195238Y7452381D02*
X34242857Y7500000D01*
X34338095Y7547620D01*
X34576190Y7547620D01*
X34671428Y7500000D01*
X34719047Y7452381D01*
X34766666Y7357143D01*
X34766666Y7261905D01*
X34719047Y7119048D01*
X34147619Y6547620D01*
X34766666Y6547620D01*
X6476190Y13547620D02*
X6476190Y14547620D01*
X6952380Y13547620D02*
X6952380Y14547620D01*
X7523809Y13547620D01*
X7523809Y14547620D01*
X22142857Y31671429D02*
X22285714Y31623810D01*
X22333333Y31576191D01*
X22380952Y31480953D01*
X22380952Y31338096D01*
X22333333Y31242858D01*
X22285714Y31195239D01*
X22190476Y31147620D01*
X21809523Y31147620D01*
X21809523Y32147620D01*
X22142857Y32147620D01*
X22238095Y32100000D01*
X22285714Y32052381D01*
X22333333Y31957143D01*
X22333333Y31861905D01*
X22285714Y31766667D01*
X22238095Y31719048D01*
X22142857Y31671429D01*
X21809523Y31671429D01*
X22761904Y31433334D02*
X23238095Y31433334D01*
X22666666Y31147620D02*
X23000000Y32147620D01*
X23333333Y31147620D01*
X23666666Y31147620D02*
X23666666Y32147620D01*
X24238095Y31147620D01*
X24238095Y32147620D01*
X24714285Y31147620D02*
X24714285Y32147620D01*
X24952380Y32147620D01*
X25095238Y32100000D01*
X25190476Y32004762D01*
X25238095Y31909524D01*
X25285714Y31719048D01*
X25285714Y31576191D01*
X25238095Y31385715D01*
X25190476Y31290477D01*
X25095238Y31195239D01*
X24952380Y31147620D01*
X24714285Y31147620D01*
X25714285Y31528572D02*
X26476190Y31528572D01*
X26952380Y31147620D02*
X26952380Y32147620D01*
X27333333Y32147620D01*
X27428571Y32100000D01*
X27476190Y32052381D01*
X27523809Y31957143D01*
X27523809Y31814286D01*
X27476190Y31719048D01*
X27428571Y31671429D01*
X27333333Y31623810D01*
X26952380Y31623810D01*
X27904761Y31433334D02*
X28380952Y31433334D01*
X27809523Y31147620D02*
X28142857Y32147620D01*
X28476190Y31147620D01*
X28761904Y31195239D02*
X28904761Y31147620D01*
X29142857Y31147620D01*
X29238095Y31195239D01*
X29285714Y31242858D01*
X29333333Y31338096D01*
X29333333Y31433334D01*
X29285714Y31528572D01*
X29238095Y31576191D01*
X29142857Y31623810D01*
X28952380Y31671429D01*
X28857142Y31719048D01*
X28809523Y31766667D01*
X28761904Y31861905D01*
X28761904Y31957143D01*
X28809523Y32052381D01*
X28857142Y32100000D01*
X28952380Y32147620D01*
X29190476Y32147620D01*
X29333333Y32100000D01*
X29714285Y31195239D02*
X29857142Y31147620D01*
X30095238Y31147620D01*
X30190476Y31195239D01*
X30238095Y31242858D01*
X30285714Y31338096D01*
X30285714Y31433334D01*
X30238095Y31528572D01*
X30190476Y31576191D01*
X30095238Y31623810D01*
X29904761Y31671429D01*
X29809523Y31719048D01*
X29761904Y31766667D01*
X29714285Y31861905D01*
X29714285Y31957143D01*
X29761904Y32052381D01*
X29809523Y32100000D01*
X29904761Y32147620D01*
X30142857Y32147620D01*
X30285714Y32100000D01*
X31333333Y31814286D02*
X31714285Y31814286D01*
X31476190Y31147620D02*
X31476190Y32004762D01*
X31523809Y32100000D01*
X31619047Y32147620D01*
X31714285Y32147620D01*
X32190476Y31147620D02*
X32095238Y31195239D01*
X32047619Y31242858D01*
X32000000Y31338096D01*
X32000000Y31623810D01*
X32047619Y31719048D01*
X32095238Y31766667D01*
X32190476Y31814286D01*
X32333333Y31814286D01*
X32428571Y31766667D01*
X32476190Y31719048D01*
X32523809Y31623810D01*
X32523809Y31338096D01*
X32476190Y31242858D01*
X32428571Y31195239D01*
X32333333Y31147620D01*
X32190476Y31147620D01*
X32952380Y31147620D02*
X32952380Y31814286D01*
X32952380Y31623810D02*
X33000000Y31719048D01*
X33047619Y31766667D01*
X33142857Y31814286D01*
X33238095Y31814286D01*
X34904761Y31242858D02*
X34857142Y31195239D01*
X34714285Y31147620D01*
X34619047Y31147620D01*
X34476190Y31195239D01*
X34380952Y31290477D01*
X34333333Y31385715D01*
X34285714Y31576191D01*
X34285714Y31719048D01*
X34333333Y31909524D01*
X34380952Y32004762D01*
X34476190Y32100000D01*
X34619047Y32147620D01*
X34714285Y32147620D01*
X34857142Y32100000D01*
X34904761Y32052381D01*
X35238095Y32147620D02*
X35476190Y31147620D01*
X35666666Y31861905D01*
X35857142Y31147620D01*
X36095238Y32147620D01*
X37238095Y31147620D02*
X37238095Y32147620D01*
X37238095Y31671429D02*
X37809523Y31671429D01*
X37809523Y31147620D02*
X37809523Y32147620D01*
X38238095Y31433334D02*
X38714285Y31433334D01*
X38142857Y31147620D02*
X38476190Y32147620D01*
X38809523Y31147620D01*
X39142857Y31147620D02*
X39142857Y32147620D01*
X39476190Y31433334D01*
X39809523Y32147620D01*
X39809523Y31147620D01*
X40857142Y31242858D02*
X40809523Y31195239D01*
X40666666Y31147620D01*
X40571428Y31147620D01*
X40428571Y31195239D01*
X40333333Y31290477D01*
X40285714Y31385715D01*
X40238095Y31576191D01*
X40238095Y31719048D01*
X40285714Y31909524D01*
X40333333Y32004762D01*
X40428571Y32100000D01*
X40571428Y32147620D01*
X40666666Y32147620D01*
X40809523Y32100000D01*
X40857142Y32052381D01*
X41285714Y32147620D02*
X41285714Y31338096D01*
X41333333Y31242858D01*
X41380952Y31195239D01*
X41476190Y31147620D01*
X41666666Y31147620D01*
X41761904Y31195239D01*
X41809523Y31242858D01*
X41857142Y31338096D01*
X41857142Y32147620D01*
X42666666Y31671429D02*
X42809523Y31623810D01*
X42857142Y31576191D01*
X42904761Y31480953D01*
X42904761Y31338096D01*
X42857142Y31242858D01*
X42809523Y31195239D01*
X42714285Y31147620D01*
X42333333Y31147620D01*
X42333333Y32147620D01*
X42666666Y32147620D01*
X42761904Y32100000D01*
X42809523Y32052381D01*
X42857142Y31957143D01*
X42857142Y31861905D01*
X42809523Y31766667D01*
X42761904Y31719048D01*
X42666666Y31671429D01*
X42333333Y31671429D01*
X43333333Y31671429D02*
X43666666Y31671429D01*
X43809523Y31147620D02*
X43333333Y31147620D01*
X43333333Y32147620D01*
X43809523Y32147620D01*
X45000000Y31147620D02*
X45000000Y32147620D01*
X45380952Y32147620D01*
X45476190Y32100000D01*
X45523809Y32052381D01*
X45571428Y31957143D01*
X45571428Y31814286D01*
X45523809Y31719048D01*
X45476190Y31671429D01*
X45380952Y31623810D01*
X45000000Y31623810D01*
X46000000Y31147620D02*
X46000000Y32147620D01*
X46000000Y31671429D02*
X46571428Y31671429D01*
X46571428Y31147620D02*
X46571428Y32147620D01*
X47238095Y32147620D02*
X47428571Y32147620D01*
X47523809Y32100000D01*
X47619047Y32004762D01*
X47666666Y31814286D01*
X47666666Y31480953D01*
X47619047Y31290477D01*
X47523809Y31195239D01*
X47428571Y31147620D01*
X47238095Y31147620D01*
X47142857Y31195239D01*
X47047619Y31290477D01*
X47000000Y31480953D01*
X47000000Y31814286D01*
X47047619Y32004762D01*
X47142857Y32100000D01*
X47238095Y32147620D01*
X48095238Y31147620D02*
X48095238Y32147620D01*
X48666666Y31147620D01*
X48666666Y32147620D01*
X49142857Y31671429D02*
X49476190Y31671429D01*
X49619047Y31147620D02*
X49142857Y31147620D01*
X49142857Y32147620D01*
X49619047Y32147620D01*
X50809523Y31147620D02*
X50809523Y32147620D01*
X51190476Y32147620D01*
X51285714Y32100000D01*
X51333333Y32052381D01*
X51380952Y31957143D01*
X51380952Y31814286D01*
X51333333Y31719048D01*
X51285714Y31671429D01*
X51190476Y31623810D01*
X50809523Y31623810D01*
X52285714Y31147620D02*
X51809523Y31147620D01*
X51809523Y32147620D01*
X52619047Y32147620D02*
X52619047Y31338096D01*
X52666666Y31242858D01*
X52714285Y31195239D01*
X52809523Y31147620D01*
X53000000Y31147620D01*
X53095238Y31195239D01*
X53142857Y31242858D01*
X53190476Y31338096D01*
X53190476Y32147620D01*
X54190476Y32100000D02*
X54095238Y32147620D01*
X53952380Y32147620D01*
X53809523Y32100000D01*
X53714285Y32004762D01*
X53666666Y31909524D01*
X53619047Y31719048D01*
X53619047Y31576191D01*
X53666666Y31385715D01*
X53714285Y31290477D01*
X53809523Y31195239D01*
X53952380Y31147620D01*
X54047619Y31147620D01*
X54190476Y31195239D01*
X54238095Y31242858D01*
X54238095Y31576191D01*
X54047619Y31576191D01*
X60138095Y7547620D02*
X60709523Y7547620D01*
X60423809Y6547620D02*
X60423809Y7547620D01*
X61042857Y6547620D02*
X61042857Y7547620D01*
X61423809Y7547620D01*
X61519047Y7500000D01*
X61566666Y7452381D01*
X61614285Y7357143D01*
X61614285Y7214286D01*
X61566666Y7119048D01*
X61519047Y7071429D01*
X61423809Y7023810D01*
X61042857Y7023810D01*
X62471428Y7214286D02*
X62471428Y6547620D01*
X62233333Y7595239D02*
X61995238Y6880953D01*
X62614285Y6880953D01*
X53138095Y7547620D02*
X53709523Y7547620D01*
X53423809Y6547620D02*
X53423809Y7547620D01*
X54042857Y6547620D02*
X54042857Y7547620D01*
X54423809Y7547620D01*
X54519047Y7500000D01*
X54566666Y7452381D01*
X54614285Y7357143D01*
X54614285Y7214286D01*
X54566666Y7119048D01*
X54519047Y7071429D01*
X54423809Y7023810D01*
X54042857Y7023810D01*
X54947619Y7547620D02*
X55566666Y7547620D01*
X55233333Y7166667D01*
X55376190Y7166667D01*
X55471428Y7119048D01*
X55519047Y7071429D01*
X55566666Y6976191D01*
X55566666Y6738096D01*
X55519047Y6642858D01*
X55471428Y6595239D01*
X55376190Y6547620D01*
X55090476Y6547620D01*
X54995238Y6595239D01*
X54947619Y6642858D01*
X68500000Y14547620D02*
X68690476Y14547620D01*
X68785714Y14500000D01*
X68880952Y14404762D01*
X68928571Y14214286D01*
X68928571Y13880953D01*
X68880952Y13690477D01*
X68785714Y13595239D01*
X68690476Y13547620D01*
X68500000Y13547620D01*
X68404761Y13595239D01*
X68309523Y13690477D01*
X68261904Y13880953D01*
X68261904Y14214286D01*
X68309523Y14404762D01*
X68404761Y14500000D01*
X68500000Y14547620D01*
X69357142Y14547620D02*
X69357142Y13738096D01*
X69404761Y13642858D01*
X69452380Y13595239D01*
X69547619Y13547620D01*
X69738095Y13547620D01*
X69833333Y13595239D01*
X69880952Y13642858D01*
X69928571Y13738096D01*
X69928571Y14547620D01*
X70261904Y14547620D02*
X70833333Y14547620D01*
X70547619Y13547620D02*
X70547619Y14547620D01*
X12738095Y27047620D02*
X13309523Y27047620D01*
X13023809Y26047620D02*
X13023809Y27047620D01*
X13642857Y26047620D02*
X13642857Y27047620D01*
X14023809Y27047620D01*
X14119047Y27000000D01*
X14166666Y26952381D01*
X14214285Y26857143D01*
X14214285Y26714286D01*
X14166666Y26619048D01*
X14119047Y26571429D01*
X14023809Y26523810D01*
X13642857Y26523810D01*
X15166666Y26047620D02*
X14595238Y26047620D01*
X14880952Y26047620D02*
X14880952Y27047620D01*
X14785714Y26904762D01*
X14690476Y26809524D01*
X14595238Y26761905D01*
X64261904Y17300000D02*
X64166666Y17347620D01*
X64023809Y17347620D01*
X63880952Y17300000D01*
X63785714Y17204762D01*
X63738095Y17109524D01*
X63690476Y16919048D01*
X63690476Y16776191D01*
X63738095Y16585715D01*
X63785714Y16490477D01*
X63880952Y16395239D01*
X64023809Y16347620D01*
X64119047Y16347620D01*
X64261904Y16395239D01*
X64309523Y16442858D01*
X64309523Y16776191D01*
X64119047Y16776191D01*
X17261904Y11500000D02*
X17166666Y11547620D01*
X17023809Y11547620D01*
X16880952Y11500000D01*
X16785714Y11404762D01*
X16738095Y11309524D01*
X16690476Y11119048D01*
X16690476Y10976191D01*
X16738095Y10785715D01*
X16785714Y10690477D01*
X16880952Y10595239D01*
X17023809Y10547620D01*
X17119047Y10547620D01*
X17261904Y10595239D01*
X17309523Y10642858D01*
X17309523Y10976191D01*
X17119047Y10976191D01*
X73397619Y15809524D02*
X73350000Y15857143D01*
X73302380Y15952381D01*
X73302380Y16190477D01*
X73350000Y16285715D01*
X73397619Y16333334D01*
X73492857Y16380953D01*
X73588095Y16380953D01*
X73730952Y16333334D01*
X74302380Y15761905D01*
X74302380Y16380953D01*
X73730952Y16952381D02*
X73683333Y16857143D01*
X73635714Y16809524D01*
X73540476Y16761905D01*
X73492857Y16761905D01*
X73397619Y16809524D01*
X73350000Y16857143D01*
X73302380Y16952381D01*
X73302380Y17142858D01*
X73350000Y17238096D01*
X73397619Y17285715D01*
X73492857Y17333334D01*
X73540476Y17333334D01*
X73635714Y17285715D01*
X73683333Y17238096D01*
X73730952Y17142858D01*
X73730952Y16952381D01*
X73778571Y16857143D01*
X73826190Y16809524D01*
X73921428Y16761905D01*
X74111904Y16761905D01*
X74207142Y16809524D01*
X74254761Y16857143D01*
X74302380Y16952381D01*
X74302380Y17142858D01*
X74254761Y17238096D01*
X74207142Y17285715D01*
X74111904Y17333334D01*
X73921428Y17333334D01*
X73826190Y17285715D01*
X73778571Y17238096D01*
X73730952Y17142858D01*
X74207142Y17761905D02*
X74254761Y17809524D01*
X74302380Y17761905D01*
X74254761Y17714286D01*
X74207142Y17761905D01*
X74302380Y17761905D01*
X73302380Y18428572D02*
X73302380Y18523810D01*
X73350000Y18619048D01*
X73397619Y18666667D01*
X73492857Y18714286D01*
X73683333Y18761905D01*
X73921428Y18761905D01*
X74111904Y18714286D01*
X74207142Y18666667D01*
X74254761Y18619048D01*
X74302380Y18523810D01*
X74302380Y18428572D01*
X74254761Y18333334D01*
X74207142Y18285715D01*
X74111904Y18238096D01*
X73921428Y18190477D01*
X73683333Y18190477D01*
X73492857Y18238096D01*
X73397619Y18285715D01*
X73350000Y18333334D01*
X73302380Y18428572D01*
X74302380Y19952381D02*
X73635714Y19952381D01*
X73730952Y19952381D02*
X73683333Y20000000D01*
X73635714Y20095239D01*
X73635714Y20238096D01*
X73683333Y20333334D01*
X73778571Y20380953D01*
X74302380Y20380953D01*
X73778571Y20380953D02*
X73683333Y20428572D01*
X73635714Y20523810D01*
X73635714Y20666667D01*
X73683333Y20761905D01*
X73778571Y20809524D01*
X74302380Y20809524D01*
X74302380Y21285715D02*
X73635714Y21285715D01*
X73730952Y21285715D02*
X73683333Y21333334D01*
X73635714Y21428572D01*
X73635714Y21571429D01*
X73683333Y21666667D01*
X73778571Y21714286D01*
X74302380Y21714286D01*
X73778571Y21714286D02*
X73683333Y21761905D01*
X73635714Y21857143D01*
X73635714Y22000000D01*
X73683333Y22095239D01*
X73778571Y22142858D01*
X74302380Y22142858D01*
X68500000Y33000000D02*
X75586420Y33000000D01*
X68500000Y5000000D02*
X75586420Y5000000D01*
X75000000Y33000000D02*
X75000000Y22955953D01*
X75000000Y15044048D02*
X75000000Y5000000D01*
X75000000Y33000000D02*
X74413579Y31873496D01*
X75000000Y33000000D02*
X75586421Y31873496D01*
X75000000Y5000000D02*
X75586421Y6126504D01*
X75000000Y5000000D02*
X74413579Y6126504D01*
X35285714Y36697620D02*
X35095238Y36697620D01*
X35000000Y36650000D01*
X34952380Y36602381D01*
X34857142Y36459524D01*
X34809523Y36269048D01*
X34809523Y35888096D01*
X34857142Y35792858D01*
X34904761Y35745239D01*
X35000000Y35697620D01*
X35190476Y35697620D01*
X35285714Y35745239D01*
X35333333Y35792858D01*
X35380952Y35888096D01*
X35380952Y36126191D01*
X35333333Y36221429D01*
X35285714Y36269048D01*
X35190476Y36316667D01*
X35000000Y36316667D01*
X34904761Y36269048D01*
X34857142Y36221429D01*
X34809523Y36126191D01*
X36238095Y36697620D02*
X36047619Y36697620D01*
X35952380Y36650000D01*
X35904761Y36602381D01*
X35809523Y36459524D01*
X35761904Y36269048D01*
X35761904Y35888096D01*
X35809523Y35792858D01*
X35857142Y35745239D01*
X35952380Y35697620D01*
X36142857Y35697620D01*
X36238095Y35745239D01*
X36285714Y35792858D01*
X36333333Y35888096D01*
X36333333Y36126191D01*
X36285714Y36221429D01*
X36238095Y36269048D01*
X36142857Y36316667D01*
X35952380Y36316667D01*
X35857142Y36269048D01*
X35809523Y36221429D01*
X35761904Y36126191D01*
X36761904Y35792858D02*
X36809523Y35745239D01*
X36761904Y35697620D01*
X36714285Y35745239D01*
X36761904Y35792858D01*
X36761904Y35697620D01*
X37428571Y36697620D02*
X37523809Y36697620D01*
X37619047Y36650000D01*
X37666666Y36602381D01*
X37714285Y36507143D01*
X37761904Y36316667D01*
X37761904Y36078572D01*
X37714285Y35888096D01*
X37666666Y35792858D01*
X37619047Y35745239D01*
X37523809Y35697620D01*
X37428571Y35697620D01*
X37333333Y35745239D01*
X37285714Y35792858D01*
X37238095Y35888096D01*
X37190476Y36078572D01*
X37190476Y36316667D01*
X37238095Y36507143D01*
X37285714Y36602381D01*
X37333333Y36650000D01*
X37428571Y36697620D01*
X38952380Y35697620D02*
X38952380Y36364286D01*
X38952380Y36269048D02*
X39000000Y36316667D01*
X39095238Y36364286D01*
X39238095Y36364286D01*
X39333333Y36316667D01*
X39380952Y36221429D01*
X39380952Y35697620D01*
X39380952Y36221429D02*
X39428571Y36316667D01*
X39523809Y36364286D01*
X39666666Y36364286D01*
X39761904Y36316667D01*
X39809523Y36221429D01*
X39809523Y35697620D01*
X40285714Y35697620D02*
X40285714Y36364286D01*
X40285714Y36269048D02*
X40333333Y36316667D01*
X40428571Y36364286D01*
X40571428Y36364286D01*
X40666666Y36316667D01*
X40714285Y36221429D01*
X40714285Y35697620D01*
X40714285Y36221429D02*
X40761904Y36316667D01*
X40857142Y36364286D01*
X41000000Y36364286D01*
X41095238Y36316667D01*
X41142857Y36221429D01*
X41142857Y35697620D01*
X5000000Y30500000D02*
X5000000Y35586420D01*
X71000000Y30500000D02*
X71000000Y35586420D01*
X5000000Y35000000D02*
X34044048Y35000000D01*
X41955953Y35000000D02*
X71000000Y35000000D01*
X5000000Y35000000D02*
X6126504Y34413579D01*
X5000000Y35000000D02*
X6126504Y35586421D01*
X71000000Y35000000D02*
X69873496Y35586421D01*
X71000000Y35000000D02*
X69873496Y34413579D01*
%TO.C,H1*%
X68452380Y7238096D02*
X67452380Y7238096D01*
X67928571Y7238096D02*
X67928571Y7809524D01*
X68452380Y7809524D02*
X67452380Y7809524D01*
X68452380Y8809524D02*
X68452380Y8238096D01*
X68452380Y8523810D02*
X67452380Y8523810D01*
X67595238Y8428572D01*
X67690476Y8333334D01*
X67738095Y8238096D01*
%TO.C,RV2*%
X46404761Y13182620D02*
X46071428Y13658810D01*
X45833333Y13182620D02*
X45833333Y14182620D01*
X46214285Y14182620D01*
X46309523Y14135000D01*
X46357142Y14087381D01*
X46404761Y13992143D01*
X46404761Y13849286D01*
X46357142Y13754048D01*
X46309523Y13706429D01*
X46214285Y13658810D01*
X45833333Y13658810D01*
X46690476Y14182620D02*
X47023809Y13182620D01*
X47357142Y14182620D01*
X47642857Y14087381D02*
X47690476Y14135000D01*
X47785714Y14182620D01*
X48023809Y14182620D01*
X48119047Y14135000D01*
X48166666Y14087381D01*
X48214285Y13992143D01*
X48214285Y13896905D01*
X48166666Y13754048D01*
X47595238Y13182620D01*
X48214285Y13182620D01*
%TO.C,RV1*%
X28404761Y13182620D02*
X28071428Y13658810D01*
X27833333Y13182620D02*
X27833333Y14182620D01*
X28214285Y14182620D01*
X28309523Y14135000D01*
X28357142Y14087381D01*
X28404761Y13992143D01*
X28404761Y13849286D01*
X28357142Y13754048D01*
X28309523Y13706429D01*
X28214285Y13658810D01*
X27833333Y13658810D01*
X28690476Y14182620D02*
X29023809Y13182620D01*
X29357142Y14182620D01*
X30214285Y13182620D02*
X29642857Y13182620D01*
X29928571Y13182620D02*
X29928571Y14182620D01*
X29833333Y14039762D01*
X29738095Y13944524D01*
X29642857Y13896905D01*
%TO.C,H3*%
X7238095Y29347620D02*
X7238095Y30347620D01*
X7238095Y29871429D02*
X7809523Y29871429D01*
X7809523Y29347620D02*
X7809523Y30347620D01*
X8190476Y30347620D02*
X8809523Y30347620D01*
X8476190Y29966667D01*
X8619047Y29966667D01*
X8714285Y29919048D01*
X8761904Y29871429D01*
X8809523Y29776191D01*
X8809523Y29538096D01*
X8761904Y29442858D01*
X8714285Y29395239D01*
X8619047Y29347620D01*
X8333333Y29347620D01*
X8238095Y29395239D01*
X8190476Y29442858D01*
%TO.C,H4*%
X67238095Y29547620D02*
X67238095Y30547620D01*
X67238095Y30071429D02*
X67809523Y30071429D01*
X67809523Y29547620D02*
X67809523Y30547620D01*
X68714285Y30214286D02*
X68714285Y29547620D01*
X68476190Y30595239D02*
X68238095Y29880953D01*
X68857142Y29880953D01*
%TO.C,H2*%
X7238095Y7547620D02*
X7238095Y8547620D01*
X7238095Y8071429D02*
X7809523Y8071429D01*
X7809523Y7547620D02*
X7809523Y8547620D01*
X8238095Y8452381D02*
X8285714Y8500000D01*
X8380952Y8547620D01*
X8619047Y8547620D01*
X8714285Y8500000D01*
X8761904Y8452381D01*
X8809523Y8357143D01*
X8809523Y8261905D01*
X8761904Y8119048D01*
X8190476Y7547620D01*
X8809523Y7547620D01*
%TO.C,G\u002A\u002A\u002A*%
G36*
X39855217Y29358703D02*
G01*
X40838051Y28486127D01*
X38854991Y26721289D01*
X38108727Y26721289D01*
X37925330Y26721889D01*
X37757522Y26723591D01*
X37611086Y26726245D01*
X37491805Y26729702D01*
X37405463Y26733811D01*
X37357843Y26738423D01*
X37350342Y26740901D01*
X37364534Y26760711D01*
X37410236Y26808571D01*
X37483652Y26880855D01*
X37580988Y26973937D01*
X37698449Y27084191D01*
X37832240Y27207990D01*
X37978566Y27341708D01*
X37989450Y27351592D01*
X38640679Y27942670D01*
X36938874Y27954921D01*
X36659291Y27957008D01*
X36393856Y27959135D01*
X36146335Y27961261D01*
X35920495Y27963349D01*
X35720099Y27965358D01*
X35548915Y27967249D01*
X35410707Y27968984D01*
X35309242Y27970522D01*
X35248284Y27971825D01*
X35231139Y27972708D01*
X35229415Y27996958D01*
X35227888Y28061775D01*
X35226635Y28160293D01*
X35225734Y28285646D01*
X35225262Y28430970D01*
X35225210Y28500000D01*
X35225210Y29021755D01*
X38652194Y29021813D01*
X38590667Y29075146D01*
X38539410Y29120368D01*
X38463241Y29188622D01*
X38366919Y29275555D01*
X38255203Y29376816D01*
X38132855Y29488056D01*
X38004632Y29604924D01*
X37875296Y29723067D01*
X37749606Y29838137D01*
X37632322Y29945781D01*
X37528203Y30041650D01*
X37442010Y30121391D01*
X37378501Y30180656D01*
X37342437Y30215092D01*
X37335948Y30222059D01*
X37358734Y30224285D01*
X37423374Y30226318D01*
X37524288Y30228090D01*
X37655898Y30229535D01*
X37812625Y30230586D01*
X37988890Y30231175D01*
X38104166Y30231279D01*
X38872384Y30231279D01*
X39855217Y29358703D01*
G37*
D11*
%TO.C,RV2*%
X53000000Y23595000D02*
G75*
G03*
X53000000Y23595000I-6000000J0D01*
G01*
%TO.C,RV1*%
X35000000Y23595000D02*
G75*
G03*
X35000000Y23595000I-6000000J0D01*
G01*
%TD*%
%LPC*%
D12*
%TO.C,H1*%
X68000000Y8000000D03*
%TD*%
D13*
%TO.C,RV2*%
X41920000Y11095000D03*
X47000000Y11095000D03*
X52080000Y11095000D03*
%TD*%
%TO.C,RV1*%
X23920000Y11095000D03*
X29000000Y11095000D03*
X34080000Y11095000D03*
%TD*%
D12*
%TO.C,H3*%
X8000000Y30000000D03*
%TD*%
%TO.C,H4*%
X68000000Y30000000D03*
%TD*%
%TO.C,H2*%
X8000000Y8000000D03*
%TD*%
D14*
%TO.C,J1*%
X16500000Y14000000D03*
X16500000Y16500000D03*
D15*
X11500000Y19000000D03*
D14*
X16500000Y24000000D03*
X16500000Y21500000D03*
%TD*%
D16*
%TO.C,TP3*%
X52000000Y7000000D03*
%TD*%
%TO.C,TP1*%
X16500000Y26500000D03*
%TD*%
%TO.C,TP2*%
X31000000Y7000000D03*
%TD*%
%TO.C,TP4*%
X59000000Y7000000D03*
%TD*%
D14*
%TO.C,J2*%
X59500000Y24000000D03*
X59500000Y21500000D03*
D15*
X64500000Y19000000D03*
D14*
X59500000Y14000000D03*
X59500000Y16500000D03*
%TD*%
M02*
