%TF.GenerationSoftware,KiCad,Pcbnew,(5.99.0-12063-ga3441a969d)*%
%TF.CreationDate,2021-08-23T19:33:07+08:00*%
%TF.ProjectId,CW-PHONE-BAND-PASS,43572d50-484f-44e4-952d-42414e442d50,rev?*%
%TF.SameCoordinates,PX5a995c0PY6422c40*%
%TF.FileFunction,Profile,NP*%
%FSLAX46Y46*%
G04 Gerber Fmt 4.6, Leading zero omitted, Abs format (unit mm)*
G04 Created by KiCad (PCBNEW (5.99.0-12063-ga3441a969d)) date 2021-08-23 19:33:07*
%MOMM*%
%LPD*%
G01*
G04 APERTURE LIST*
%TA.AperFunction,Profile*%
%ADD10C,0.100000*%
%TD*%
%TA.AperFunction,Profile*%
%ADD11C,0.120000*%
%TD*%
G04 APERTURE END LIST*
D10*
X71000000Y30000000D02*
G75*
G03*
X68000000Y33000000I-3000000J0D01*
G01*
X5000000Y30000000D02*
G75*
G02*
X8000000Y33000000I3000000J0D01*
G01*
X8000000Y5000000D02*
X68000000Y5000000D01*
X5000000Y8000000D02*
G75*
G03*
X8000000Y5000000I3000000J0D01*
G01*
X68000000Y33000000D02*
X8000000Y33000000D01*
X71000000Y8000000D02*
X71000000Y30000000D01*
X5000000Y30000000D02*
X5000000Y8000000D01*
X71000000Y8000000D02*
G75*
G02*
X68000000Y5000000I-3000000J0D01*
G01*
X6666666Y5000000D02*
G75*
G03*
X6666666Y5000000I-1666666J0D01*
G01*
X2500000Y5000000D02*
X7500000Y5000000D01*
X5000000Y7500000D02*
X5000000Y2500000D01*
D11*
%TO.C,RV2*%
X50600000Y23595000D02*
G75*
G03*
X50600000Y23595000I-3600000J0D01*
G01*
%TO.C,RV1*%
X32600000Y23595000D02*
G75*
G03*
X32600000Y23595000I-3600000J0D01*
G01*
%TO.C,J1*%
X12100000Y14000000D02*
G75*
G03*
X12100000Y14000000I-600000J0D01*
G01*
X17100000Y19000000D02*
G75*
G03*
X17100000Y19000000I-600000J0D01*
G01*
X9600000Y14000000D02*
G75*
G03*
X9600000Y14000000I-600000J0D01*
G01*
X12100000Y24000000D02*
G75*
G03*
X12100000Y24000000I-600000J0D01*
G01*
X9600000Y24000000D02*
G75*
G03*
X9600000Y24000000I-600000J0D01*
G01*
%TO.C,J2*%
X60100000Y19000000D02*
G75*
G03*
X60100000Y19000000I-600000J0D01*
G01*
X67600000Y24000000D02*
G75*
G03*
X67600000Y24000000I-600000J0D01*
G01*
X65100000Y24000000D02*
G75*
G03*
X65100000Y24000000I-600000J0D01*
G01*
X67600000Y14000000D02*
G75*
G03*
X67600000Y14000000I-600000J0D01*
G01*
X65100000Y14000000D02*
G75*
G03*
X65100000Y14000000I-600000J0D01*
G01*
%TD*%
M02*
